<svg width="48" height="53" viewBox="0 0 48 53" fill="none" xmlns="http://www.w3.org/2000/svg">
<circle cx="24" cy="29" r="24" fill="#0A0A10"/>
<path d="M22.16 43.36C20.08 43.36 18.2 43.0267 16.52 42.36C14.84 41.6933 13.3867 40.7333 12.16 39.48C10.96 38.2 10.0267 36.6667 9.36 34.88C8.72 33.0667 8.4 31.04 8.4 28.8C8.4 26.3733 8.76 24.2133 9.48 22.32C10.2 20.4267 11.2133 18.8267 12.52 17.52C13.8533 16.1867 15.4267 15.1867 17.24 14.52C19.08 13.8267 21.1333 13.48 23.4 13.48C25.9333 13.48 28.1867 13.8933 30.16 14.72C32.1333 15.52 33.7333 16.6667 34.96 18.16C36.2133 19.6267 36.9733 21.4 37.24 23.48H30.92C30.6267 22.5467 30.1333 21.7333 29.44 21.04C28.7467 20.32 27.88 19.7733 26.84 19.4C25.8267 19 24.6667 18.8 23.36 18.8C21.4933 18.8 19.92 19.2133 18.64 20.04C17.3867 20.84 16.4267 21.9733 15.76 23.44C15.12 24.9067 14.8 26.6267 14.8 28.6C14.8 30.1467 15 31.52 15.4 32.72C15.8 33.92 16.36 34.9333 17.08 35.76C17.8267 36.56 18.7067 37.1733 19.72 37.6C20.76 38.0267 21.92 38.24 23.2 38.24C24.7467 38.24 26.0933 37.9733 27.24 37.44C28.4133 36.88 29.32 36.1067 29.96 35.12C30.6267 34.1333 30.96 32.9733 30.96 31.64V30.4L32.24 31.56H22.68V27.04H37.6V43H32.64L32.32 38.4H32.08C31.6267 39.3867 30.9067 40.2533 29.92 41C28.9333 41.7467 27.7733 42.3333 26.44 42.76C25.1067 43.16 23.68 43.36 22.16 43.36Z" fill="white"/>
</svg>
