<svg width="32" height="32" viewBox="0 0 32 32" fill="none" xmlns="http://www.w3.org/2000/svg">
<ellipse cx="16" cy="16.9412" rx="16" ry="15.0588" fill="#0A0A10"/>
<path d="M15.096 26.216C13.848 26.216 12.72 26.016 11.712 25.616C10.704 25.216 9.832 24.64 9.096 23.888C8.376 23.12 7.816 22.2 7.416 21.128C7.032 20.04 6.84 18.824 6.84 17.48C6.84 16.024 7.056 14.728 7.488 13.592C7.92 12.456 8.528 11.496 9.312 10.712C10.112 9.912 11.056 9.312 12.144 8.912C13.248 8.496 14.48 8.288 15.84 8.288C17.36 8.288 18.712 8.536 19.896 9.032C21.08 9.512 22.04 10.2 22.776 11.096C23.528 11.976 23.984 13.04 24.144 14.288H20.352C20.176 13.728 19.88 13.24 19.464 12.824C19.048 12.392 18.528 12.064 17.904 11.84C17.296 11.6 16.6 11.48 15.816 11.48C14.696 11.48 13.752 11.728 12.984 12.224C12.232 12.704 11.656 13.384 11.256 14.264C10.872 15.144 10.68 16.176 10.68 17.36C10.68 18.288 10.8 19.112 11.04 19.832C11.28 20.552 11.616 21.16 12.048 21.656C12.496 22.136 13.024 22.504 13.632 22.76C14.256 23.016 14.952 23.144 15.72 23.144C16.648 23.144 17.456 22.984 18.144 22.664C18.848 22.328 19.392 21.864 19.776 21.272C20.176 20.68 20.376 19.984 20.376 19.184V18.44L21.144 19.136H15.408V16.424H24.36V26H21.384L21.192 23.24H21.048C20.776 23.832 20.344 24.352 19.752 24.8C19.16 25.248 18.464 25.6 17.664 25.856C16.864 26.096 16.008 26.216 15.096 26.216Z" fill="white"/>
</svg>
