<svg width="16" height="16" viewBox="0 0 16 16" fill="none" xmlns="http://www.w3.org/2000/svg">
<ellipse cx="8" cy="7.52942" rx="8" ry="6.69281" fill="#0A0A10"/>
<path d="M7.79 11.09C7.27 11.09 6.8 11.0067 6.38 10.84C5.96 10.6733 5.59667 10.4333 5.29 10.12C4.99 9.8 4.75667 9.41667 4.59 8.97C4.43 8.51667 4.35 8.01 4.35 7.45C4.35 6.84333 4.44 6.30333 4.62 5.83C4.8 5.35667 5.05333 4.95667 5.38 4.63C5.71333 4.29667 6.10667 4.04667 6.56 3.88C7.02 3.70667 7.53333 3.62 8.1 3.62C8.73333 3.62 9.29667 3.72333 9.79 3.93C10.2833 4.13 10.6833 4.41667 10.99 4.79C11.3033 5.15667 11.4933 5.6 11.56 6.12H9.98C9.90667 5.88667 9.78333 5.68333 9.61 5.51C9.43667 5.33 9.22 5.19333 8.96 5.1C8.70667 5 8.41667 4.95 8.09 4.95C7.62333 4.95 7.23 5.05333 6.91 5.26C6.59667 5.46 6.35667 5.74333 6.19 6.11C6.03 6.47667 5.95 6.90667 5.95 7.4C5.95 7.78667 6 8.13 6.1 8.43C6.2 8.73 6.34 8.98333 6.52 9.19C6.70667 9.39 6.92667 9.54333 7.18 9.65C7.44 9.75667 7.73 9.81 8.05 9.81C8.43667 9.81 8.77333 9.74333 9.06 9.61C9.35333 9.47 9.58 9.27667 9.74 9.03C9.90667 8.78333 9.99 8.49333 9.99 8.16V7.85L10.31 8.14H7.92V7.01H11.65V11H10.41L10.33 9.85H10.27C10.1567 10.0967 9.97667 10.3133 9.73 10.5C9.48333 10.6867 9.19333 10.8333 8.86 10.94C8.52667 11.04 8.17 11.09 7.79 11.09Z" fill="white"/>
</svg>
